name analog
datacolumns 19
datarows 27
range 0.34500000000000003 0.358
endheader
time	ground_force_vx	ground_force_vy	ground_force_vz	ground_force_px	ground_force_py	ground_force_pz	l_ground_force_vx	l_ground_force_vy	l_ground_force_vz	l_ground_force_px	l_ground_force_py	l_ground_force_pz	ground_torque_x	ground_torque_y	ground_torque_z	l_ground_torque_x	l_ground_torque_y	l_ground_torque_z
0.34500000000000003	-0.0	-0.0	-0.0	2.4321534633636475	-2.411184787750244	-801.2723388671875	-0.0	-0.0	-0.0	-0.0	-0.0	-0.0	-0.0	-0.0	-0.0	-0.0	-0.0	-0.0
0.34550000000000003	-0.0	-0.0	-0.0	2.6339712142944336	-3.0682213306427	-805.1395263671875	-0.0	-0.0	-0.0	-0.0	-0.0	-0.0	-0.0	-0.0	-0.0	-0.0	-0.0	-0.0
0.34600000000000003	-0.0	-0.0	-0.0	3.408987045288086	-2.0032260417938232	-807.369384765625	-0.0	-0.0	-0.0	-0.0	-0.0	-0.0	-0.0	-0.0	-0.0	-0.0	-0.0	-0.0
0.34650000000000003	-0.0	-0.0	-0.0	3.296514749526977	-1.0929149389266968	-809.7659912109375	-0.0	-0.0	-0.0	-0.0	-0.0	-0.0	-0.0	-0.0	-0.0	-0.0	-0.0	-0.0
0.34700000000000003	-0.0	-0.0	-0.0	3.1141111850738525	-0.7047939896583557	-813.00390625	-0.0	-0.0	-0.0	-0.0	-0.0	-0.0	-0.0	-0.0	-0.0	-0.0	-0.0	-0.0
0.34750000000000003	-0.0	-0.0	-0.0	2.920637607574463	-0.3372559547424316	-817.9043579101562	-0.0	-0.0	-0.0	-0.0	-0.0	-0.0	-0.0	-0.0	-0.0	-0.0	-0.0	-0.0
0.34800000000000003	-0.0	-0.0	-0.0	2.858616828918457	-0.0542576611042022	-820.6212768554688	-0.0	-0.0	-0.0	-0.0	-0.0	-0.0	-0.0	-0.0	-0.0	-0.0	-0.0	-0.0
0.34850000000000003	-0.0	-0.0	-0.0	2.951416254043579	-1.3639028072357178	-824.6603393554688	-0.0	-0.0	-0.0	-0.0	-0.0	-0.0	-0.0	-0.0	-0.0	-0.0	-0.0	-0.0
0.34900000000000003	-0.0	-0.0	-0.0	2.9708070755004883	-1.7862509489059448	-826.0247802734375	-0.0	-0.0	-0.0	-0.0	-0.0	-0.0	-0.0	-0.0	-0.0	-0.0	-0.0	-0.0
0.34950000000000003	-0.0	-0.0	-0.0	2.6763153076171875	-1.6275041103363037	-830.2481689453125	-0.0	-0.0	-0.0	-0.0	-0.0	-0.0	-0.0	-0.0	-0.0	-0.0	-0.0	-0.0
0.35000000000000003	-0.0	-0.0	-0.0	2.250049352645874	-2.16225004196167	-832.5499877929688	-0.0	-0.0	-0.0	-0.0	-0.0	-0.0	-0.0	-0.0	-0.0	-0.0	-0.0	-0.0
0.35050000000000003	-0.0	-0.0	-0.0	2.164167881011963	-2.337235927581787	-839.2470092773438	-0.0	-0.0	-0.0	-0.0	-0.0	-0.0	-0.0	-0.0	-0.0	-0.0	-0.0	-0.0
0.35100000000000003	-0.0	-0.0	-0.0	2.342552661895752	-1.49215829372406	-841.0919189453125	-0.0	-0.0	-0.0	-0.0	-0.0	-0.0	-0.0	-0.0	-0.0	-0.0	-0.0	-0.0
0.35150000000000003	-0.0	-0.0	-0.0	1.8013310432434082	-1.5813250541687012	-843.314208984375	-0.0	-0.0	-0.0	-0.0	-0.0	-0.0	-0.0	-0.0	-0.0	-0.0	-0.0	-0.0
0.352	-0.0	-0.0	-0.0	0.9813156127929688	-1.53820538520813	-843.758056640625	-0.0	-0.0	-0.0	-0.0	-0.0	-0.0	-0.0	-0.0	-0.0	-0.0	-0.0	-0.0
0.3525	-0.0	-0.0	-0.0	0.5987794399261475	-1.5895192623138428	-842.5856323242188	-0.0	-0.0	-0.0	-0.0	-0.0	-0.0	-0.0	-0.0	-0.0	-0.0	-0.0	-0.0
0.353	-0.0	-0.0	-0.0	-0.4919415414333343	-1.5229122638702393	-840.4774169921875	-0.0	-0.0	-0.0	-0.0	-0.0	-0.0	-0.0	-0.0	-0.0	-0.0	-0.0	-0.0
0.3535	-0.0	-0.0	-0.0	-1.091012477874756	-1.3164880275726318	-838.08642578125	-0.0	-0.0	-0.0	-0.0	-0.0	-0.0	-0.0	-0.0	-0.0	-0.0	-0.0	-0.0
0.354	-0.0	-0.0	-0.0	-1.5623431205749512	-1.115288257598877	-836.5020751953125	-0.0	-0.0	-0.0	-0.0	-0.0	-0.0	-0.0	-0.0	-0.0	-0.0	-0.0	-0.0
0.3545	-0.0	-0.0	-0.0	-1.0911991596221924	-0.532611608505249	-833.5950927734375	-0.0	-0.0	-0.0	-0.0	-0.0	-0.0	-0.0	-0.0	-0.0	-0.0	-0.0	-0.0
0.355	-0.0	-0.0	-0.0	-0.6888476610183716	0.0911556035280227	-832.6177368164062	-0.0	-0.0	-0.0	-0.0	-0.0	-0.0	-0.0	-0.0	-0.0	-0.0	-0.0	-0.0
0.3555	-0.0	-0.0	-0.0	0.0664232820272445	-0.4059284329414367	-830.23583984375	-0.0	-0.0	-0.0	-0.0	-0.0	-0.0	-0.0	-0.0	-0.0	-0.0	-0.0	-0.0
0.356	-0.0	-0.0	-0.0	0.4915541410446167	-2.032641887664795	-829.716796875	-0.0	-0.0	-0.0	-0.0	-0.0	-0.0	-0.0	-0.0	-0.0	-0.0	-0.0	-0.0
0.3565	-0.0	-0.0	-0.0	0.6504817605018616	-4.6364264488220215	-832.5415649414062	-0.0	-0.0	-0.0	-0.0	-0.0	-0.0	-0.0	-0.0	-0.0	-0.0	-0.0	-0.0
0.357	-0.0	-0.0	-0.0	1.763064980506897	-5.192231178283691	-833.7741088867188	-0.0	-0.0	-0.0	-0.0	-0.0	-0.0	-0.0	-0.0	-0.0	-0.0	-0.0	-0.0
0.3575	-0.0	-0.0	-0.0	1.8521661758422847	-5.459586143493652	-835.2705078125	-0.0	-0.0	-0.0	-0.0	-0.0	-0.0	-0.0	-0.0	-0.0	-0.0	-0.0	-0.0
0.358	-0.0	-0.0	-0.0	2.206395387649536	-5.2147536277771	-837.563720703125	-0.0	-0.0	-0.0	-0.0	-0.0	-0.0	-0.0	-0.0	-0.0	-0.0	-0.0	-0.0
